<?xml version="1.0" standalone="no"?>
<!DOCTYPE svg PUBLIC "-//W3C//DTD SVG 20010904//EN"
 "http://www.w3.org/TR/2001/REC-SVG-20010904/DTD/svg10.dtd">
<svg version="1.0" xmlns="http://www.w3.org/2000/svg"
 width="700.000000pt" height="700.000000pt" viewBox="0 0 700.000000 700.000000"
 preserveAspectRatio="xMidYMid meet">
<metadata>
Created by potrace 1.11, written by Peter Selinger 2001-2013
</metadata>
<g transform="translate(0.000000,700.000000) scale(0.100000,-0.100000)"
fill="#000000" stroke="none">
<path d="M5925 6765 c-181 -23 -355 -46 -385 -49 -30 -4 -104 -13 -165 -21
-60 -7 -137 -17 -170 -20 -33 -4 -67 -8 -75 -10 -8 -2 -40 -7 -70 -10 -74 -8
-121 -14 -205 -25 -38 -5 -90 -11 -115 -14 -25 -3 -151 -19 -280 -35 -129 -16
-260 -33 -290 -36 -30 -3 -66 -8 -80 -10 -14 -2 -83 -11 -155 -20 -71 -8 -144
-17 -161 -20 -17 -2 -89 -11 -160 -20 -134 -16 -185 -23 -244 -30 -81 -11
-201 -26 -237 -30 -36 -4 -165 -20 -245 -30 -57 -7 -114 -14 -155 -20 -21 -2
-112 -14 -203 -25 -91 -12 -174 -22 -185 -24 -19 -3 -20 -10 -18 -187 2 -195
12 -2312 18 -3606 1 -425 0 -773 -3 -773 -3 0 -26 17 -51 38 -162 135 -383
231 -601 260 -72 9 -321 9 -388 -1 -243 -35 -486 -148 -648 -303 -192 -184
-283 -388 -282 -627 1 -141 23 -228 90 -363 71 -143 212 -290 369 -385 68 -41
230 -112 279 -123 14 -3 52 -12 85 -21 159 -39 410 -42 580 -6 395 83 701 330
805 651 46 139 45 108 42 1565 -2 759 -4 1680 -6 2047 l-3 667 36 5 c20 3 54
8 76 11 23 3 50 7 60 9 28 5 102 15 155 21 25 3 110 15 190 26 80 11 213 29
295 40 83 11 161 22 175 24 51 7 106 15 155 21 28 3 58 8 69 10 10 2 44 6 75
10 31 3 65 8 75 10 11 2 56 8 100 14 45 6 160 22 256 35 96 13 198 27 225 30
28 3 61 8 75 10 14 3 48 7 75 10 28 4 77 10 110 15 33 5 80 12 105 15 39 5
137 18 220 30 112 16 183 25 225 31 17 2 62 8 100 14 39 5 88 12 110 15 22 2
74 9 115 15 41 6 89 12 105 15 17 2 70 9 118 15 49 7 90 10 93 7 4 -4 9 -773
18 -2869 1 -296 -1 -538 -4 -538 -3 0 -16 10 -30 23 -150 135 -396 247 -600
272 -30 4 -58 9 -62 11 -13 8 -250 7 -308 -1 -227 -31 -404 -97 -570 -213
-253 -178 -401 -441 -401 -715 0 -146 30 -263 101 -395 102 -188 255 -329 470
-434 186 -91 359 -127 574 -123 161 3 196 8 323 41 218 57 406 165 543 310
142 151 211 294 238 494 8 59 7 1407 -2 3490 -3 718 -5 1428 -5 1578 -1 253
-2 272 -18 271 -10 -1 -166 -20 -348 -44z m83 -722 c-2 -103 -6 -127 -18 -128
-8 -1 -40 -5 -70 -9 -30 -4 -82 -11 -115 -16 -33 -5 -80 -12 -105 -15 -51 -6
-113 -15 -150 -20 -14 -3 -44 -7 -67 -10 -24 -3 -62 -7 -85 -10 -24 -3 -54 -8
-68 -10 -14 -2 -45 -7 -70 -10 -25 -3 -56 -8 -70 -10 -14 -2 -50 -7 -80 -11
-68 -8 -84 -10 -140 -18 -25 -4 -63 -9 -85 -12 -22 -3 -51 -7 -65 -9 -14 -2
-49 -7 -79 -10 -30 -4 -61 -8 -70 -10 -9 -1 -41 -6 -71 -10 -30 -3 -66 -8 -80
-10 -92 -13 -181 -25 -220 -30 -25 -3 -56 -8 -70 -10 -30 -5 -78 -12 -145 -20
-27 -4 -61 -8 -75 -10 -14 -2 -47 -7 -75 -10 -27 -4 -61 -8 -75 -10 -14 -2
-61 -9 -106 -15 -44 -6 -89 -12 -100 -14 -10 -2 -46 -7 -79 -10 -33 -4 -71 -9
-85 -11 -14 -3 -43 -7 -65 -10 -22 -2 -56 -7 -75 -9 -107 -16 -251 -36 -295
-41 -27 -4 -61 -8 -75 -10 -14 -2 -43 -6 -65 -9 -84 -11 -280 -38 -290 -39 -6
-1 -11 51 -13 136 l-3 137 26 1 c14 1 28 2 33 3 4 1 36 6 72 10 36 4 72 9 81
11 8 1 42 6 75 9 32 4 86 11 119 16 33 5 80 11 105 14 72 8 306 39 385 50 105
14 276 36 325 41 30 3 62 8 70 10 8 2 44 7 80 10 36 3 72 8 80 10 8 2 38 6 65
9 125 14 141 16 161 20 12 2 45 7 75 11 30 3 65 8 79 10 14 2 50 7 80 10 30 3
62 7 70 10 8 2 42 6 75 10 33 3 71 8 85 10 21 3 185 24 315 40 36 5 74 10 145
20 14 2 50 7 80 10 30 3 66 8 80 10 22 3 86 12 155 21 11 1 112 14 225 29 113
14 209 27 214 28 47 13 47 13 44 -120z"/>
</g>
</svg>
