<?xml version="1.0" encoding="utf-8"?>
<!-- Generator: Adobe Illustrator 18.0.0, SVG Export Plug-In . SVG Version: 6.00 Build 0)  -->
<!DOCTYPE svg PUBLIC "-//W3C//DTD SVG 1.1//EN" "http://www.w3.org/Graphics/SVG/1.1/DTD/svg11.dtd">
<svg version="1.1" xmlns="http://www.w3.org/2000/svg" xmlns:xlink="http://www.w3.org/1999/xlink" x="0px" y="0px"
	 viewBox="0 0 299.7 361.3" enable-background="new 0 0 299.7 361.3" xml:space="preserve">
<g id="BACKGROUND" display="none">
	<rect x="-93.4" y="-84.3" display="inline" fill="#E2E6FF" width="500" height="500"/>
</g>
<g id="Layer_4">
</g>
<g id="OBJECTS">
	<path fill="#FFFFFF" d="M284.8,61.3c-0.4-2.9-2.5-5-5-5c-0.4,0-0.8,0.1-1.2,0.2c-0.9-5.3-4.7-9.3-9.3-9.3c-3.7,0-6.9,2.6-8.5,6.4
		c-0.6-0.1-1.1-0.2-1.7-0.2c-2.5,0-4.8,1.5-6.2,3.7c-0.7-0.5-1.6-0.8-2.5-0.8c-2.5,0-4.5,2.2-5,5H284.8z"/>
	<path fill="#FFFFFF" d="M147.3,296.4c-0.4-2.9-2.5-5-5-5c-0.4,0-0.8,0.1-1.2,0.2c-0.9-5.3-4.7-9.3-9.3-9.3c-3.7,0-6.9,2.6-8.5,6.4
		c-0.6-0.1-1.1-0.2-1.7-0.2c-2.5,0-4.8,1.5-6.2,3.7c-0.7-0.5-1.6-0.8-2.5-0.8c-2.5,0-4.5,2.2-5,5H147.3z"/>
	<path fill="#FFFFFF" d="M46.5,240.8c-0.4-2.9-2.5-5-5-5c-0.4,0-0.8,0.1-1.2,0.2c-0.9-5.3-4.7-9.3-9.3-9.3c-3.7,0-6.9,2.6-8.5,6.4
		c-0.6-0.1-1.1-0.2-1.7-0.2c-2.5,0-4.8,1.5-6.2,3.7c-0.7-0.5-1.6-0.8-2.5-0.8c-2.5,0-4.5,2.2-5,5H46.5z"/>
	<path fill="#FFFFFF" d="M63.3,32c-0.4-2.9-2.5-5-5-5c-0.4,0-0.8,0.1-1.2,0.2c-0.9-5.3-4.7-9.3-9.3-9.3c-3.7,0-6.9,2.6-8.5,6.4
		c-0.6-0.1-1.1-0.2-1.7-0.2c-2.5,0-4.8,1.5-6.2,3.7c-0.7-0.5-1.6-0.8-2.5-0.8c-2.5,0-4.5,2.2-5,5H63.3z"/>
	<path fill="#FFFFFF" d="M296.5,196.3c-0.4-2.9-2.5-5-5-5c-0.4,0-0.8,0.1-1.2,0.2c-0.9-5.3-4.7-9.3-9.3-9.3c-3.7,0-6.9,2.6-8.5,6.4
		c-0.6-0.1-1.1-0.2-1.7-0.2c-2.5,0-4.8,1.5-6.2,3.7c-0.7-0.5-1.6-0.8-2.5-0.8c-2.5,0-4.5,2.2-5,5H296.5z"/>
	<g>
		<path fill="#FFFFFF" d="M215.1,329h-56c-0.6,0-1-0.4-1-1c0-0.6,0.4-1,1-1h56c0.6,0,1,0.4,1,1C216.1,328.5,215.7,329,215.1,329z"/>
	</g>
	<g>
		<path fill="#FFFFFF" d="M184.6,25h-56c-0.6,0-1-0.4-1-1c0-0.6,0.4-1,1-1h56c0.6,0,1,0.4,1,1C185.6,24.5,185.1,25,184.6,25z"/>
	</g>
	<g>
		<path fill="#FFFFFF" d="M284.4,125.2h-26c-0.6,0-1-0.4-1-1c0-0.6,0.4-1,1-1h26c0.6,0,1,0.4,1,1C285.4,124.7,285,125.2,284.4,125.2
			z"/>
	</g>
	<g>
		<path fill="#FFFFFF" d="M282.6,223.1h-26c-0.6,0-1-0.4-1-1c0-0.6,0.4-1,1-1h26c0.6,0,1,0.4,1,1
			C283.6,222.7,283.1,223.1,282.6,223.1z"/>
	</g>
	<g>
		<path fill="#FFFFFF" d="M50.9,283.2h-26c-0.6,0-1-0.4-1-1c0-0.6,0.4-1,1-1h26c0.6,0,1,0.4,1,1C51.9,282.8,51.5,283.2,50.9,283.2z"
			/>
	</g>
	<g>
		<path fill="#FFFFFF" d="M42.6,55.2h-26c-0.6,0-1-0.4-1-1c0-0.6,0.4-1,1-1h26c0.6,0,1,0.4,1,1C43.6,54.8,43.2,55.2,42.6,55.2z"/>
	</g>
	<rect x="84.6" y="98.6" fill="none" width="108.1" height="50.5"/>
	<text transform="matrix(1 0 0 1 84.6417 140.6102)" fill="#FFFFFF" font-family="'MyriadPro-Semibold'" font-size="59.2">404</text>
	<rect x="98.7" y="153.4" fill="none" width="108.1" height="50.5"/>
	<text transform="matrix(1 0 0 1 98.6558 169.3328)" fill="#FFFFFF" font-family="'MyriadPro-Semibold'" font-size="22.4">ERROR!</text>
	<path fill="#E5E5E5" d="M66.7,173.1c19,33.1,58.7,46.9,93.4,34.4c-2.1,1.9-2.7,5-1.2,7.5c1.7,2.9,5.3,3.9,8.2,2.2l20.9-12
		c2.9-1.7,3.9-5.3,2.2-8.2c-1.4-2.4-4.2-3.5-6.7-2.8c28.6-23.7,36.9-65.2,17.8-98.5c-21.4-37.2-68.8-50-106-28.6
		C58.2,88.5,45.4,136,66.7,173.1z M103.4,81.2c29.4-16.9,67-6.8,83.9,22.7c16.9,29.4,6.8,67-22.7,83.9c-29.4,16.9-67,6.8-83.9-22.7
		C63.8,135.7,73.9,98.1,103.4,81.2z"/>
	<path fill="#E5E5E5" d="M216.7,301.9l-51-88.7l19.9-11.4l51,88.7c3.2,5.5,1.3,12.5-4.2,15.7l0,0
		C226.9,309.2,219.9,307.3,216.7,301.9z M233.5,285.1l-1.6-2.8l-20,11.3l1.6,2.8L233.5,285.1z M230,278.9l-1.6-2.8l-20,11.3l1.6,2.8
		L230,278.9z"/>
</g>
<g id="DESIGNED_BY_FREEPIK">
</g>
</svg>
