<?xml version="1.0" encoding="utf-8"?>
<!-- Generator: Adobe Illustrator 18.0.0, SVG Export Plug-In . SVG Version: 6.00 Build 0)  -->
<!DOCTYPE svg PUBLIC "-//W3C//DTD SVG 1.1//EN" "http://www.w3.org/Graphics/SVG/1.1/DTD/svg11.dtd">
<svg version="1.1" id="Layer_1" xmlns="http://www.w3.org/2000/svg" xmlns:xlink="http://www.w3.org/1999/xlink" x="0px" y="0px"
	 viewBox="0 201 500 96" enable-background="new 0 201 500 96" xml:space="preserve">
<path fill="#FFFFFF" stroke="#FFFFFF" stroke-width="5" stroke-miterlimit="10" d="M70,261.2l1.9-49.7l0,0V209l-42.5,4.6l0.1,6.2
	l0.2,42.3c-2.2-2.1-5.5-3.5-9.1-3.5c-6.7,0-12.1,4.4-12.1,10.1c0,5.6,5.4,10.3,12.1,10.3c6.6,0,11.9-3.8,12.1-9.6v-1l-0.2-42.8
	l36.4-5l0.2,36.6c-2.2-2.1-5.5-3.5-9.1-3.5c-6.7,0-12.1,4.5-12.1,10.1c0,5.6,4.4,10.6,11.1,10.7c6.6,0,11.1-3.9,11.1-9.3v-1.7
	C70,263.2,70,261.2,70,261.2z M32.5,222v-2.9l36.4-4.7v2.7L32.5,222z"/>
<g>
	<path fill="#FFFFFF" d="M134.4,260.5v10.5H92.7v-52.2h40.7v10.5h-27.1V240h21.5v9.9h-21.5v10.7H134.4z"/>
	<path fill="#FFFFFF" d="M180.5,231.5V271h-12l-0.4-7.4c-2.5,5.4-7,8.1-13.7,8.1c-4.2,0-7.5-1.1-9.9-3.3c-2.4-2.2-3.6-5.8-3.6-10.5
		v-26.4h13.5v23c0,2.6,0.4,4.4,1.3,5.5c0.9,1,2.3,1.6,4.1,1.6c2.2,0,4-0.8,5.3-2.2c1.3-1.5,1.9-3.8,1.9-6.9v-21H180.5z"/>
	<path fill="#FFFFFF" d="M227.6,236.1c2.8,3.6,4.3,8.6,4.3,15.1c0,6.5-1.5,11.7-4.4,15.3c-2.9,3.6-6.9,5.5-11.9,5.5
		c-2.8,0-5.2-0.7-7.2-2c-2-1.3-3.6-3.1-4.7-5.5v23.2h-13.5v-56.1H202l0.4,8.4c1.1-2.8,2.8-5,5.1-6.7c2.3-1.7,5-2.5,8.1-2.5
		C220.8,230.7,224.8,232.5,227.6,236.1z M216.4,259.4c1.3-1.7,1.9-4.4,1.9-8s-0.6-6.3-1.9-8s-3.1-2.6-5.5-2.6c-2.3,0-4,0.9-5.3,2.6
		c-1.3,1.7-1.9,4.3-1.9,7.7v0.8c0,3.3,0.6,5.8,1.9,7.6c1.2,1.8,3.1,2.7,5.4,2.7C213.3,261.9,215.1,261.1,216.4,259.4z"/>
	<path fill="#FFFFFF" d="M275.8,234.3c2.5,2.4,3.7,5.9,3.7,10.3V271h-13.5v-22.6c0-5-1.9-7.5-5.6-7.5c-2.1,0-3.8,0.8-5.1,2.3
		c-1.3,1.5-1.9,3.9-1.9,7V271h-13.5v-56.3h13.5v23.9c1.2-2.6,2.8-4.6,4.9-6s4.6-2,7.6-2C269.9,230.7,273.3,231.9,275.8,234.3z"/>
	<path fill="#FFFFFF" d="M323.2,236.1c3.7,3.6,5.5,8.7,5.5,15.1s-1.8,11.5-5.5,15.1s-8.8,5.4-15.4,5.4s-11.7-1.8-15.4-5.4
		c-3.7-3.6-5.5-8.7-5.5-15.1c0-6.5,1.8-11.5,5.5-15.1s8.8-5.4,15.4-5.4C314.5,230.7,319.6,232.5,323.2,236.1z M302.3,242.9
		c-1.2,1.7-1.8,4.5-1.8,8.4c0,3.8,0.6,6.7,1.8,8.4c1.2,1.7,3.1,2.6,5.6,2.6c2.5,0,4.4-0.9,5.6-2.6c1.2-1.7,1.8-4.5,1.8-8.4
		c0-3.8-0.6-6.7-1.8-8.4c-1.2-1.7-3.1-2.6-5.6-2.6C305.3,240.3,303.5,241.1,302.3,242.9z"/>
	<path fill="#FFFFFF" d="M372.4,234.3c2.5,2.4,3.7,5.9,3.7,10.3V271h-13.5v-22.6c0-2.7-0.5-4.6-1.5-5.8c-1-1.1-2.4-1.7-4.2-1.7
		c-2.1,0-3.8,0.8-5.1,2.2c-1.3,1.5-1.9,3.8-1.9,6.9V271h-13.5v-39.5h12l0.4,7.6c1.2-2.8,3.1-4.9,5.4-6.3c2.3-1.4,5.1-2.1,8.1-2.1
		C366.6,230.7,369.9,231.9,372.4,234.3z"/>
	<path fill="#FFFFFF" d="M386.3,225.4c-1.2-1-1.9-2.6-1.9-4.9c0-2.3,0.6-3.9,1.9-4.9s3.3-1.5,6-1.5c2.8,0,4.7,0.5,6,1.5
		s1.9,2.7,1.9,4.9s-0.6,3.8-1.9,4.9c-1.2,1-3.3,1.5-6,1.5C389.5,226.9,387.5,226.4,386.3,225.4z M399,271h-13.5v-39.5H399V271z"/>
	<path fill="#FFFFFF" d="M449.2,263l-1,7.5c-1.5,0.8-3.3,1.2-5.4,1.2c-5.7,0-9.1-2-10.2-6.1c-2.4,4.1-7.1,6.1-14.1,6.1
		c-4,0-7-0.8-9.1-2.5c-2.1-1.7-3.2-4.2-3.2-7.4c0-3.4,1.2-6.1,3.6-8.2c2.4-2.1,6.3-3.7,11.8-4.8l8.9-1.7v-1.5c0-1.8-0.5-3.2-1.5-4.3
		c-1-1-2.4-1.6-4.1-1.6c-2,0-3.6,0.5-4.9,1.5c-1.2,1-2.1,2.5-2.4,4.6l-10.9-3.2c0.7-3.8,2.6-6.9,5.7-8.9c3.1-2.2,7.3-3.2,12.6-3.2
		c6.2,0,10.9,1.2,14.1,3.8c3.2,2.5,4.9,6.3,4.9,11.4v14.4c0,2.1,1,3.1,2.8,3.1C447.8,263.4,448.6,263.3,449.2,263z M428.4,261.6
		c1.5-1,2.2-2.4,2.2-4.1v-3.4l-6.4,1.5c-1.7,0.4-2.9,0.9-3.6,1.5c-0.7,0.6-1,1.5-1,2.6c0,1.1,0.3,1.9,1,2.5c0.7,0.6,1.7,0.9,2.8,0.9
		C425.3,263.1,426.9,262.6,428.4,261.6z"/>
	<path fill="#FFFFFF" d="M492.3,255.1h-27c0.4,2.5,1.3,4.3,2.7,5.5s3.3,1.7,5.6,1.7c1.9,0,3.5-0.3,4.8-1.1c1.2-0.8,2.1-1.8,2.5-3.3
		l10.9,3.5c-1.1,3.4-3.3,6-6.5,7.7c-3.2,1.7-7.1,2.6-11.7,2.6c-6.9,0-12.2-1.8-15.9-5.4c-3.7-3.6-5.5-8.7-5.5-15.2
		c0-6.5,1.8-11.6,5.4-15.2s8.7-5.4,15.3-5.4c6.4,0,11.2,1.7,14.6,5.3c3.4,3.5,5.1,8.4,5.1,14.8C492.7,252.5,492.6,254,492.3,255.1z
		 M465.2,247.8h14.8c-0.6-5.1-3.1-7.8-7.3-7.8C468.6,240.1,466.1,242.7,465.2,247.8z"/>
</g>
</svg>
