<?xml version="1.0" encoding="utf-8"?>
<!-- Generator: Adobe Illustrator 18.0.0, SVG Export Plug-In . SVG Version: 6.00 Build 0)  -->
<!DOCTYPE svg PUBLIC "-//W3C//DTD SVG 1.1//EN" "http://www.w3.org/Graphics/SVG/1.1/DTD/svg11.dtd">
<svg version="1.1" id="Layer_1" xmlns="http://www.w3.org/2000/svg" xmlns:xlink="http://www.w3.org/1999/xlink" x="0px" y="0px"
	 viewBox="0 0 500 500" enable-background="new 0 0 500 500" xml:space="preserve">
<g id="Layer_1_1_" display="none">
	<circle display="inline" fill="none" stroke="#000000" stroke-width="10" stroke-miterlimit="10" cx="250" cy="250" r="238.9"/>
	<circle display="inline" fill="none" stroke="#000000" stroke-width="10" stroke-miterlimit="10" cx="250" cy="250" r="191.1"/>
	<circle display="inline" fill="none" stroke="#000000" stroke-width="10" stroke-miterlimit="10" cx="250" cy="250" r="95.6"/>
</g>
<g id="Layer_2">
	<path fill="#FFFFFF" d="M445.4,387.9v-0.1c0-0.1,0-0.1,0-0.2L444,19.8l0,0v-6.2L160.7,49l0.5,43.6l1.2,283.1
		c-14.8-14.1-36.5-23-60.7-23c-44.5,0-80.7,30.1-80.7,67.2s36.1,66.5,80.6,66.5c44,0,79.8-27.7,80.6-66.7h1.1v0.4
		c0-0.1-0.5-0.1-0.5-0.2s-0.3-0.2-0.3-0.2l-1.1-287.6L424.1,99l1,244.4c-14.8-14.1-36.5-23-60.7-23c-44.5,0-80.7,30.1-80.7,67.2
		s36.1,68.1,80.6,68.1c44,0,79.8-29,80.6-65h0.3v-2.8H445.4z M181.3,110.4l-0.1-19.5l242.7-31.5l0.1,17.9L181.3,110.4z"/>
</g>
</svg>
